# xmcd CD database file
#
# Track frame offsets:
#	150
#	21855
#	43577
#	53270
#
# Disc length: 997 seconds
#
# Revision: 3
# Processed by: cddbd v1.5PL3 Copyright (c) Steve Scherf et al.
# Submitted via: CDex 1.50
#
DISCID=2403e304
DTITLE=Tommy february6 - Love is forever
DYEAR=2003
DGENRE=JPop
TTITLE0=Love is forever
TTITLE1=ふたりのシーサイド
TTITLE2=_Summer Lemonade Poem_
TTITLE3=Love is forever (Original Instrumental)
EXTD=YEAR: 2003
EXTT0=
EXTT1=
EXTT2=
EXTT3=
PLAYORDER=
